<svg width="18" height="14" viewBox="0 0 18 14" fill="white" xmlns="http://www.w3.org/2000/svg">
<path d="M1.65646 3.31404H16.3435C17.2569 3.31404 18 2.57094 18 1.65758C18 0.743062 17.2569 0 16.3435 0H1.65646C0.743098 0 0 0.743062 0 1.65758C0 2.57094 0.743098 3.31404 1.65646 3.31404ZM1.65646 1.05469H16.3435C16.6753 1.05469 16.9453 1.32465 16.9453 1.65646C16.9453 1.98942 16.6753 2.25935 16.3435 2.25935H1.65646C1.32465 2.25935 1.05469 1.98939 1.05469 1.65646C1.05469 1.32462 1.32465 1.05469 1.65646 1.05469Z"/>
<path d="M16.3435 5.08362H1.65646C0.743098 5.08362 0 5.82669 0 6.7412C0 7.65456 0.743098 8.39766 1.65646 8.39766H16.3435C17.2569 8.39766 18 7.65456 18 6.7412C18 5.82669 17.2569 5.08362 16.3435 5.08362ZM16.3435 7.34297H1.65646C1.32465 7.34297 1.05469 7.07301 1.05469 6.74008C1.05469 6.40828 1.32465 6.13831 1.65646 6.13831H16.3435C16.6753 6.13831 16.9453 6.40828 16.9453 6.74008C16.9453 7.07304 16.6753 7.34297 16.3435 7.34297Z"/>
<path d="M16.3435 10.1671H1.65646C0.743098 10.1671 0 10.9102 0 11.8247C0 12.7381 0.743098 13.4812 1.65646 13.4812H16.3435C17.2569 13.4812 18 12.7381 18 11.8247C18 10.9102 17.2569 10.1671 16.3435 10.1671ZM16.3435 12.4265H1.65646C1.32465 12.4265 1.05469 12.1565 1.05469 11.8236C1.05469 11.4918 1.32465 11.2218 1.65646 11.2218H16.3435C16.6753 11.2218 16.9453 11.4918 16.9453 11.8236C16.9453 12.1566 16.6753 12.4265 16.3435 12.4265Z"/>
</svg>

