<svg width="18" height="12" viewBox="0 0 18 12" fill="white" xmlns="http://www.w3.org/2000/svg">
<path d="M1.28571 0H7.71429C8.05528 0 8.3823 0.126428 8.62342 0.351472C8.86454 0.576516 9 0.88174 9 1.2C9 1.51826 8.86454 1.82348 8.62342 2.04853C8.3823 2.27357 8.05528 2.4 7.71429 2.4H1.28571C0.944722 2.4 0.617695 2.27357 0.376577 2.04853C0.135459 1.82348 0 1.51826 0 1.2C0 0.88174 0.135459 0.576516 0.376577 0.351472C0.617695 0.126428 0.944722 0 1.28571 0ZM10.2857 9.6H16.7143C17.0553 9.6 17.3823 9.72643 17.6234 9.95147C17.8645 10.1765 18 10.4817 18 10.8C18 11.1183 17.8645 11.4235 17.6234 11.6485C17.3823 11.8736 17.0553 12 16.7143 12H10.2857C9.94472 12 9.61769 11.8736 9.37658 11.6485C9.13546 11.4235 9 11.1183 9 10.8C9 10.4817 9.13546 10.1765 9.37658 9.95147C9.61769 9.72643 9.94472 9.6 10.2857 9.6ZM1.28571 4.8H16.7143C17.0553 4.8 17.3823 4.92643 17.6234 5.15147C17.8645 5.37652 18 5.68174 18 6C18 6.31826 17.8645 6.62348 17.6234 6.84853C17.3823 7.07357 17.0553 7.2 16.7143 7.2H1.28571C0.944722 7.2 0.617695 7.07357 0.376577 6.84853C0.135459 6.62348 0 6.31826 0 6C0 5.68174 0.135459 5.37652 0.376577 5.15147C0.617695 4.92643 0.944722 4.8 1.28571 4.8Z"/>
</svg>

