<svg width="18" height="18" viewBox="0 0 18 18" fill="white" xmlns="http://www.w3.org/2000/svg">
<path d="M17.5166 7.82913L17.5152 7.82776L10.1719 0.485458C9.85891 0.172348 9.44276 0 9.0001 0C8.55745 0 8.1413 0.172348 7.82816 0.485458L0.488685 7.82405C0.486213 7.82652 0.483603 7.82913 0.481268 7.8316C-0.161497 8.47801 -0.160398 9.52679 0.484427 10.1716C0.779028 10.4663 1.16798 10.6368 1.584 10.6548C1.60103 10.6565 1.61806 10.6573 1.63522 10.6573H1.92776V16.0606C1.92776 17.13 2.79797 18 3.86746 18H6.7404C7.0317 18 7.2678 17.7638 7.2678 17.4727V13.2363C7.2678 12.7484 7.66486 12.3515 8.15283 12.3515H9.84737C10.3354 12.3515 10.7323 12.7484 10.7323 13.2363V17.4727C10.7323 17.7638 10.9684 18 11.2597 18H14.1326C15.2022 18 16.0723 17.13 16.0723 16.0606V10.6573H16.3437C16.7862 10.6573 17.2024 10.4849 17.5156 10.1717C18.1612 9.52597 18.1614 8.47527 17.5166 7.82913ZM16.7697 9.42599C16.6559 9.53984 16.5045 9.6026 16.3437 9.6026H15.5449C15.2536 9.6026 15.0175 9.83867 15.0175 10.1299V16.0606C15.0175 16.5484 14.6206 16.9453 14.1326 16.9453H11.7871V13.2363C11.7871 12.1669 10.917 11.2968 9.84737 11.2968H8.15283C7.08321 11.2968 6.213 12.1669 6.213 13.2363V16.9453H3.86746C3.37962 16.9453 2.98256 16.5484 2.98256 16.0606V10.1299C2.98256 9.83867 2.74647 9.6026 2.45516 9.6026H1.67011C1.66187 9.60205 1.65377 9.60164 1.64539 9.6015C1.48827 9.59875 1.3409 9.53641 1.23047 9.42586C0.995618 9.19102 0.995618 8.80884 1.23047 8.57387L8.5742 1.23116C8.68792 1.11731 8.83914 1.05469 9.0001 1.05469C9.16093 1.05469 9.31215 1.11731 9.426 1.23116L16.7674 8.57167C16.7685 8.57277 16.7697 8.57387 16.7708 8.57497C17.0045 8.81021 17.004 9.19157 16.7697 9.42599Z"/>
</svg>

