<svg width="89" height="23" viewBox="0 0 89 23" fill="none" xmlns="http://www.w3.org/2000/svg">
<path fill-rule="evenodd" clip-rule="evenodd" d="M26.4589 22.9824C23.3653 23.1663 20.42 21.8679 19.1909 21.0144C18.5057 20.5383 17.709 19.8383 16.4411 19.1819V15.6536L19.2398 12.2843L26.4589 22.9824Z" fill="white"/>
<path fill-rule="evenodd" clip-rule="evenodd" d="M16.4411 0.000792386C18.2883 -0.0104976 20.3392 0.0985316 22.6126 0.348847L16.4411 8.11766V0.000792386Z" fill="white"/>
<path fill-rule="evenodd" clip-rule="evenodd" d="M27.5059 1.74561C31.5711 3.52136 37.1877 7.42222 34.9671 14.9907C34.0857 17.9935 32.7562 19.9561 31.2287 21.187L22.6645 8.30252L27.5059 1.74561Z" fill="white"/>
<path fill-rule="evenodd" clip-rule="evenodd" d="M11.5681 17.7064C10.747 17.5855 9.83432 17.4971 8.81508 17.4526C2.07725 17.16 -0.700579 11.9976 0.148573 8.70766C0.957321 5.57259 3.62371 1.55979 11.5681 0.3566V17.7064Z" fill="white"/>
<path d="M41.2921 12.6669C41.2921 12.1833 41.354 11.7188 41.4798 11.2701C41.6059 10.8185 41.7857 10.4018 42.0164 10.0141C42.2471 9.62665 42.5235 9.27343 42.8451 8.95731C43.1644 8.64151 43.5212 8.37055 43.9125 8.14475C44.3042 7.91927 44.7255 7.74379 45.1706 7.61928C45.6187 7.49445 46.0879 7.43058 46.576 7.43058C47.0563 7.43058 47.5229 7.49445 47.9735 7.61928C48.4242 7.74379 48.8426 7.91927 49.2316 8.14475C49.6204 8.37055 49.9772 8.64151 50.2962 8.95731C50.6181 9.27343 50.8944 9.62665 51.1251 10.0141C51.3558 10.4018 51.5354 10.8185 51.6615 11.2701C51.7876 11.7188 51.8491 12.1833 51.8491 12.6669C51.8491 13.1527 51.7876 13.6172 51.6615 14.0633C51.5354 14.5094 51.3558 14.9265 51.1251 15.3113C50.8944 15.6965 50.6181 16.0468 50.2962 16.3681C49.9772 16.6868 49.6204 16.9577 49.2316 17.1832C48.8426 17.409 48.4242 17.5842 47.9735 17.709C47.5229 17.8338 47.0563 17.8977 46.576 17.8977C46.0879 17.8977 45.6187 17.8338 45.1706 17.709C44.7255 17.5842 44.3042 17.409 43.9125 17.1832C43.5212 16.9577 43.1644 16.6868 42.8451 16.3681C42.5235 16.0468 42.2471 15.6965 42.0164 15.3113C41.7857 14.9265 41.6059 14.5094 41.4798 14.0633C41.354 13.6172 41.2921 13.1527 41.2921 12.6669ZM43.5613 12.664C43.5613 13.0888 43.6365 13.4898 43.7868 13.8694C43.937 14.2494 44.1462 14.5813 44.4143 14.8626C44.6799 15.1442 44.9989 15.3671 45.3665 15.5316C45.7311 15.6965 46.1335 15.7787 46.5682 15.7787C46.9892 15.7787 47.3834 15.6965 47.7428 15.5316C48.1049 15.3671 48.4186 15.1442 48.679 14.8626C48.942 14.5813 49.1482 14.2494 49.2958 13.8694C49.4434 13.4898 49.5158 13.0888 49.5158 12.664C49.5158 12.2446 49.4434 11.8437 49.2958 11.4614C49.1482 11.0789 48.942 10.7418 48.679 10.4524C48.4186 10.1628 48.1049 9.9318 47.7428 9.75922C47.3834 9.58665 46.9892 9.50181 46.5682 9.50181C46.1335 9.50181 45.7311 9.58665 45.3665 9.75922C44.9989 9.9318 44.6799 10.1628 44.4143 10.4524C44.1462 10.7418 43.937 11.0789 43.7868 11.4614C43.6365 11.8437 43.5613 12.2446 43.5613 12.664Z" fill="white"/>
<path d="M53.6759 8.05991C53.6759 7.90604 53.7293 7.78895 53.8339 7.70927C53.9388 7.6296 54.0538 7.58992 54.1773 7.58992H55.2073C55.3416 7.58992 55.4462 7.6296 55.5159 7.70927C55.5856 7.78895 55.6391 7.88733 55.6769 8.0041C55.7143 8.12087 55.7411 8.24571 55.757 8.38119C55.7733 8.51667 55.7919 8.64151 55.8163 8.75279C55.9343 8.58828 56.0682 8.42635 56.2158 8.26958C56.3634 8.11313 56.5296 7.97507 56.7173 7.85282C56.9053 7.73056 57.1171 7.6325 57.353 7.55799C57.5893 7.48379 57.8574 7.44638 58.1579 7.44638C58.426 7.44638 58.6675 7.4625 58.8819 7.49702C59.0966 7.53154 59.3032 7.58476 59.4987 7.65637C59.6945 7.72798 59.8852 7.82088 60.0728 7.93507C60.2605 8.04926 60.4619 8.18474 60.6763 8.33861C60.7675 8.397 60.848 8.46345 60.9151 8.53796C60.9819 8.61215 61.0142 8.69989 61.0142 8.80086C61.009 8.84311 61.0009 8.88827 60.9901 8.93601C60.9793 8.98408 60.9578 9.03182 60.9259 9.07956L60.2661 10.115C60.2231 10.1682 60.1748 10.2053 60.1185 10.2292C60.0621 10.2531 60.0113 10.2663 59.9683 10.2663C59.8826 10.2663 59.7991 10.245 59.7187 10.2028C59.5417 10.1069 59.3807 10.017 59.2361 9.93179C59.0911 9.84696 58.949 9.77244 58.8095 9.71148C58.6701 9.65051 58.528 9.60245 58.3804 9.56793C58.2328 9.53342 58.0666 9.51761 57.8841 9.51761C57.4068 9.51761 57.0044 9.6689 56.6746 9.97179C56.3445 10.2744 56.122 10.6911 56.0092 11.2224V17.2284C56.0092 17.5471 55.8431 17.7064 55.5078 17.7064H54.1773C53.842 17.7064 53.6759 17.5471 53.6759 17.2284V8.05991Z" fill="white"/>
<path d="M66.156 17.7064C65.732 17.7013 65.3352 17.6374 64.9624 17.5151C64.5893 17.3932 64.2648 17.2152 63.9888 16.9842C63.7125 16.7532 63.4925 16.469 63.3315 16.132C63.1706 15.7945 63.0901 15.4097 63.0901 14.9794V13.6623L63.0819 9.5973H62.1565C62.0011 9.5973 61.8858 9.56279 61.8079 9.49376C61.7303 9.42472 61.6899 9.31053 61.6899 9.15376V8.0096C61.6899 7.85799 61.7303 7.74929 61.8079 7.68542C61.8858 7.62187 62.0037 7.58994 62.1595 7.58994H63.0901C63.0901 7.30833 63.0927 7.02705 63.0982 6.74835C63.1035 6.46674 63.1061 6.18546 63.1061 5.90385C63.1061 5.79773 63.1383 5.71257 63.2054 5.6516C63.2726 5.59064 63.3772 5.53741 63.514 5.48709C63.6049 5.45516 63.7151 5.41806 63.8438 5.3729C63.9725 5.32774 64.1041 5.28258 64.2406 5.24C64.3775 5.19742 64.5088 5.16291 64.6379 5.13388C64.7666 5.10452 64.8738 5.08872 64.9595 5.08872C65.123 5.08872 65.2332 5.13388 65.284 5.2242C65.3352 5.31452 65.3593 5.43387 65.3593 5.58515C65.3593 5.91966 65.3593 6.25449 65.3593 6.58609C65.3593 6.92092 65.3593 7.25543 65.3593 7.58994H66.518C66.6574 7.58994 66.7646 7.62445 66.8399 7.69606C66.9149 7.76767 66.9523 7.88186 66.9523 8.03347V9.12215C66.9523 9.28924 66.9149 9.4115 66.8399 9.48569C66.7646 9.5602 66.6574 9.5973 66.518 9.5973H65.3593C65.3593 9.94245 65.3593 10.2347 65.3593 10.4734C65.3593 10.7124 65.3593 10.9224 65.3593 11.1053C65.3593 11.2885 65.3593 11.4614 65.3593 11.6205C65.3593 11.7798 65.3593 11.9524 65.3593 12.1385C65.3593 12.3243 65.3593 12.5366 65.3593 12.7756C65.3593 13.0146 65.3593 13.3066 65.3593 13.6517C65.3593 13.6623 65.3593 13.673 65.3593 13.6836C65.3593 13.6943 65.3593 13.7049 65.3593 13.7156V14.7591C65.3593 15.1097 65.429 15.362 65.5659 15.5158C65.7053 15.6697 65.9305 15.7468 66.2391 15.7468C66.3518 15.7468 66.4375 15.7868 66.5017 15.8665C66.5662 15.9462 66.5985 16.0416 66.5985 16.1558V17.2658C66.5985 17.4064 66.561 17.5126 66.4831 17.5897C66.4052 17.6668 66.2954 17.7064 66.156 17.7064Z" fill="white"/>
<path d="M76.8982 16.5887C76.426 16.9893 75.9112 17.3055 75.3507 17.5364C74.7899 17.7674 74.1731 17.8816 73.5025 17.8816C72.7785 17.8816 72.0916 17.7461 71.4425 17.4755C70.7934 17.2045 70.2249 16.8329 69.7367 16.3603C69.2486 15.8849 68.8625 15.3326 68.5754 14.6981C68.2884 14.0607 68.1437 13.3785 68.1437 12.643C68.1437 12.1701 68.2027 11.7137 68.3206 11.2727C68.4386 10.8321 68.6077 10.4179 68.8247 10.0328C69.042 9.64761 69.305 9.29472 69.6162 8.97344C69.927 8.65216 70.276 8.37603 70.6595 8.14765C71.0431 7.91927 71.4588 7.74379 71.9065 7.61928C72.3546 7.49445 72.8267 7.43058 73.3256 7.43058C73.7332 7.43058 74.1357 7.47832 74.5325 7.5767C74.9294 7.67476 75.3077 7.81573 75.6645 7.99604C76.021 8.17669 76.3537 8.39442 76.6649 8.65216C76.976 8.90957 77.2494 9.20182 77.4857 9.52568C77.8076 9.9718 78.0435 10.4524 78.1937 10.9673C78.3439 11.4824 78.4189 12.0534 78.4189 12.6801C78.4189 12.834 78.4137 12.9614 78.4003 13.0649C78.387 13.1685 78.3521 13.2536 78.2983 13.3172C78.2446 13.3811 78.1641 13.4262 78.0569 13.4552C77.9497 13.4846 77.7995 13.5004 77.6062 13.5004H70.4689C70.5387 13.8801 70.6729 14.2201 70.8687 14.5123C71.0646 14.8068 71.2952 15.0539 71.5634 15.2584C71.8316 15.4626 72.1239 15.6168 72.4403 15.7203C72.757 15.8239 73.0734 15.8742 73.3898 15.8742C73.6312 15.8742 73.8645 15.8503 74.0874 15.8026C74.31 15.7549 74.5166 15.691 74.7095 15.6113C74.9027 15.5316 75.0822 15.4387 75.2461 15.3352C75.4097 15.2317 75.5518 15.1255 75.6753 15.0139C75.6753 15.0088 75.6779 15.0062 75.6831 15.0062C75.7476 14.9475 75.8092 14.8997 75.8682 14.8652C75.9271 14.8307 75.9891 14.8149 76.0533 14.8149C76.1015 14.8149 76.1579 14.8307 76.2198 14.8626C76.2813 14.8946 76.3403 14.9475 76.3993 15.022C76.5443 15.1971 76.6675 15.3433 76.7695 15.46C76.8714 15.5768 76.9545 15.6752 77.0191 15.7549C77.0833 15.8345 77.1315 15.9036 77.1611 15.962C77.1904 16.0203 77.2041 16.0813 77.2041 16.1397C77.2041 16.2884 77.1021 16.44 76.8982 16.5887ZM73.3256 9.40601C73.0089 9.40601 72.7006 9.46181 72.4002 9.576C72.0998 9.69019 71.8261 9.84438 71.5768 10.0408C71.3272 10.2373 71.1102 10.4682 70.9251 10.7311C70.74 10.9966 70.6032 11.2808 70.5171 11.5888H76.2142C76.1285 11.2647 75.9998 10.9702 75.8255 10.7047C75.6508 10.4363 75.439 10.2053 75.1924 10.0141C74.9457 9.82019 74.6638 9.67148 74.3475 9.56536C74.0311 9.45923 73.6902 9.40601 73.3256 9.40601Z" fill="white"/>
<path d="M79.6098 17.5948C79.5293 17.5948 79.4889 17.5629 79.4889 17.4994C79.4889 17.4729 79.5023 17.4329 79.5293 17.38V17.3558C79.5293 17.3242 79.5371 17.2923 79.5534 17.2603C79.5694 17.2284 79.5857 17.2019 79.6017 17.1807L82.9331 12.473C82.6379 12.0482 82.3616 11.6498 82.1015 11.2808C81.8412 10.9118 81.5893 10.556 81.3453 10.2105C81.1009 9.86537 80.8597 9.52312 80.6209 9.18571C80.382 8.84863 80.1328 8.49799 79.8754 8.13155C79.8323 8.07316 79.7975 8.01478 79.7708 7.95639C79.7437 7.89801 79.7304 7.84736 79.7304 7.80511C79.7304 7.74124 79.76 7.68834 79.8164 7.64834C79.8724 7.60866 79.9666 7.58995 80.1005 7.58995H81.5649C81.7206 7.58995 81.8467 7.6006 81.9406 7.62447C82.0344 7.64834 82.1149 7.68834 82.182 7.74124C82.2491 7.79446 82.3107 7.86349 82.3671 7.94833C82.4235 8.03349 82.4903 8.13413 82.5707 8.25122C82.8604 8.68121 83.1423 9.1141 83.4157 9.54957C83.6894 9.98505 83.9657 10.4205 84.2446 10.856C84.3893 10.6489 84.5421 10.4205 84.7005 10.1734C84.8588 9.92666 85.0169 9.67441 85.1778 9.41668C85.3388 9.15926 85.4972 8.90701 85.6526 8.65734C85.8083 8.40767 85.9556 8.17671 86.0951 7.96446C86.1863 7.8264 86.2697 7.72801 86.3447 7.67221C86.42 7.6164 86.5164 7.58995 86.6344 7.58995H88.4288C88.5252 7.58995 88.6057 7.60576 88.6702 7.64027C88.7344 7.67479 88.7667 7.73059 88.7667 7.80511C88.7722 7.86349 88.7374 7.94833 88.6621 8.05994C88.3991 8.42638 88.1473 8.78218 87.9032 9.12733C87.6588 9.47248 87.4122 9.82021 87.1629 10.1708C86.9133 10.5215 86.6559 10.8824 86.3929 11.254C86.1303 11.626 85.8484 12.0269 85.548 12.4569C86.1006 13.2324 86.6503 14.0049 87.1948 14.7778C87.7393 15.5504 88.2867 16.3258 88.839 17.101C88.882 17.1648 88.9195 17.2284 88.9518 17.2948C88.984 17.3613 89 17.4248 89 17.4835C89 17.5471 88.9733 17.6003 88.9195 17.6426C88.8661 17.6852 88.7722 17.7064 88.638 17.7064H86.7471C86.6291 17.7064 86.5324 17.6771 86.4574 17.6187C86.3822 17.5603 86.3072 17.4729 86.2319 17.3558L86.0228 17.0294C85.7223 16.5462 85.4248 16.0655 85.1296 15.5875C84.8347 15.1097 84.5395 14.6291 84.2446 14.1459L82.4661 17.0452C82.3589 17.2207 82.2491 17.3745 82.1364 17.5074C82.0719 17.571 81.9969 17.6161 81.9109 17.6455C81.8252 17.6745 81.734 17.6932 81.6375 17.7013C81.5408 17.709 81.4443 17.7116 81.3478 17.709C81.2511 17.7064 81.1572 17.7064 81.066 17.7064H79.7708C79.6903 17.7064 79.6365 17.6693 79.6098 17.5948Z" fill="white"/>
</svg>
