<svg width="54" height="35" viewBox="0 0 54 35" fill="none" xmlns="http://www.w3.org/2000/svg">
<path fill-rule="evenodd" clip-rule="evenodd" d="M40.2816 34.9732C35.5719 35.253 31.0879 33.2773 29.2167 31.9784C28.1734 31.2539 26.9605 30.1887 25.0303 29.1898V23.8207L29.2911 18.6935L40.2816 34.9732Z" fill="white"/>
<path fill-rule="evenodd" clip-rule="evenodd" d="M25.0303 0.0012058C27.8426 -0.0159746 30.9648 0.149939 34.4259 0.530855L25.0303 12.353V0.0012058Z" fill="white"/>
<path fill-rule="evenodd" clip-rule="evenodd" d="M41.8755 2.65636C48.0646 5.3586 56.6154 11.2947 53.2346 22.812C51.8928 27.3815 49.8688 30.3679 47.5432 32.2411L34.5049 12.6343L41.8755 2.65636Z" fill="white"/>
<path fill-rule="evenodd" clip-rule="evenodd" d="M17.6116 26.9446C16.3615 26.7605 14.972 26.626 13.4203 26.5583C3.16245 26.1131 -1.06658 18.2572 0.226191 13.2508C1.45745 8.48002 5.51682 2.3736 17.6116 0.542653V26.9446Z" fill="white"/>
</svg>
